# xmcd
#
# Track frame offsets: 
#        150
#        9980
#        20386
#        32633
#        42238
#        53400
#        65397
#        75113
#        86122
#        97210
#        111232
#        125374
#        136867
#        149250
#        162226
#        174475
#        190645
#        202679
#        213953
#        225211
#
# Disc length: 3132 seconds
#
# Revision: 4
# Processed by: cddbd v1.5.1PL2 Copyright (c) Steve Scherf et al.
# Submitted via: ExactAudioCopy v0.90b4
#
DISCID=f00c3a14
DTITLE=Brenda Lee - Anthology - (1956-1961) - Vol. 1
DYEAR=1991
DGENRE=Country
TTITLE0=Jambalaya ( On The Bayou )
TTITLE1=Bigelow 6-200
TTITLE2=One Step At A Time
TTITLE3=Dynamite
TTITLE4=Little Jonah ( Rock On Your Steel Guitar )
TTITLE5=Let's Jump The Broomstick
TTITLE6=Rockin' Around The Christmas Tree
TTITLE7=Bill Bailey, Won't You Please Come Home
TTITLE8=Sweet Nothin's
TTITLE9=Weep No More My Baby
TTITLE10=I Want To Be Wanted ( Per Tutta La Vita )
TTITLE11=That's All You Gotta Do
TTITLE12=I'm Sorry
TTITLE13=Emotions
TTITLE14=If You Love Me ( Really Love Me )
TTITLE15=You Can Depend On Me
TTITLE16=Kansas City
TTITLE17=Dum Dum
TTITLE18=Fool Number 1
TTITLE19=So Deep
EXTD=
EXTT0=
EXTT1=
EXTT2=
EXTT3=
EXTT4=
EXTT5=
EXTT6=
EXTT7=
EXTT8=
EXTT9=
EXTT10=
EXTT11=
EXTT12=
EXTT13=
EXTT14=
EXTT15=
EXTT16=
EXTT17=
EXTT18=
EXTT19=
PLAYORDER=
